<?xml version="1.0" encoding="UTF-8" standalone="no"?>
<svg
   inkscape:export-ydpi="96"
   inkscape:export-xdpi="96"
   inkscape:export-filename="../../Pictures/Inkscape/slint-blue-logo-solid-text-inverted.png"
   sodipodi:docname="Salix_Day_by_missTell.svg"
   inkscape:version="1.2.2 (b0a8486541, 2022-12-01)"
   id="svg8"
   version="1.1"
   viewBox="0 0 2032.0354 1143"
   height="4320"
   width="7680.1338"
   xmlns:inkscape="http://www.inkscape.org/namespaces/inkscape"
   xmlns:sodipodi="http://sodipodi.sourceforge.net/DTD/sodipodi-0.dtd"
   xmlns:xlink="http://www.w3.org/1999/xlink"
   xmlns="http://www.w3.org/2000/svg"
   xmlns:svg="http://www.w3.org/2000/svg"
   xmlns:rdf="http://www.w3.org/1999/02/22-rdf-syntax-ns#"
   xmlns:cc="http://creativecommons.org/ns#"
   xmlns:dc="http://purl.org/dc/elements/1.1/">
  <title
     id="title52">Salix Day by missTell</title>
  <defs
     id="defs2">
    <linearGradient
       inkscape:collect="always"
       id="linearGradient2728">
      <stop
         style="stop-color:#6ba4e7;stop-opacity:1;"
         offset="0.28899843"
         id="stop2724" />
      <stop
         style="stop-color:#6ba4e7;stop-opacity:0;"
         offset="1"
         id="stop2726" />
    </linearGradient>
    <linearGradient
       inkscape:collect="always"
       id="linearGradient1712">
      <stop
         style="stop-color:#6ba4e7;stop-opacity:1;"
         offset="0.50148809"
         id="stop1708" />
      <stop
         style="stop-color:#6ba4e7;stop-opacity:0;"
         offset="1"
         id="stop1710" />
    </linearGradient>
    <linearGradient
       inkscape:collect="always"
       xlink:href="#linearGradient1712"
       id="linearGradient1714"
       x1="1811.8512"
       y1="999.73151"
       x2="-463.98407"
       y2="-260.8501"
       gradientUnits="userSpaceOnUse" />
    <linearGradient
       inkscape:collect="always"
       xlink:href="#linearGradient2728"
       id="linearGradient2722"
       gradientUnits="userSpaceOnUse"
       x1="2032"
       y1="1143"
       x2="-992.12115"
       y2="-555.89868" />
  </defs>
  <sodipodi:namedview
     inkscape:guide-bbox="true"
     showguides="true"
     units="px"
     fit-margin-bottom="0"
     fit-margin-right="0"
     fit-margin-left="0"
     fit-margin-top="0"
     inkscape:window-maximized="1"
     inkscape:window-y="32"
     inkscape:window-x="0"
     inkscape:window-height="1011"
     inkscape:window-width="1920"
     showgrid="false"
     inkscape:document-rotation="0"
     inkscape:current-layer="layer16"
     inkscape:document-units="mm"
     inkscape:cy="2125.361"
     inkscape:cx="3919.3919"
     inkscape:zoom="0.12374369"
     inkscape:pageshadow="2"
     inkscape:pageopacity="0.0"
     borderopacity="1.0"
     bordercolor="#666666"
     pagecolor="#ffffff"
     id="base"
     inkscape:showpageshadow="2"
     inkscape:pagecheckerboard="0"
     inkscape:deskcolor="#d1d1d1" />
  <metadata
     id="metadata5">
    <rdf:RDF>
      <cc:Work
         rdf:about="">
        <dc:format>image/svg+xml</dc:format>
        <dc:type
           rdf:resource="http://purl.org/dc/dcmitype/StillImage" />
        <dc:title>Salix Day by missTell</dc:title>
        <cc:license
           rdf:resource="http://creativecommons.org/licenses/by/3.0/" />
        <dc:date>2020-12-09</dc:date>
        <dc:creator>
          <cc:Agent>
            <dc:title>missTell</dc:title>
          </cc:Agent>
        </dc:creator>
        <dc:rights>
          <cc:Agent>
            <dc:title>missTell</dc:title>
          </cc:Agent>
        </dc:rights>
        <dc:publisher>
          <cc:Agent>
            <dc:title>missTell</dc:title>
          </cc:Agent>
        </dc:publisher>
      </cc:Work>
    </rdf:RDF>
  </metadata>
  <g
     inkscape:groupmode="layer"
     id="layer4"
     inkscape:label="Background White"
     style="display:none">
    <rect
       y="-1.2031856e-13"
       x="0"
       height="1143"
       width="2032"
       id="rect854-63-7-1"
       style="display:inline;fill:#ffffff;fill-opacity:1;stroke:none;stroke-width:0.0703792;stroke-opacity:1" />
  </g>
  <g
     inkscape:groupmode="layer"
     id="layer3"
     inkscape:label="Background Black"
     style="display:inline">
    <rect
       y="-1.2031856e-13"
       x="0"
       height="1143"
       width="2032"
       id="rect854-63-7-6"
       style="display:inline;fill:#000000;fill-opacity:1;stroke:none;stroke-width:0.0703792;stroke-opacity:1" />
  </g>
  <g
     inkscape:groupmode="layer"
     id="layer26"
     inkscape:label="Sky"
     style="display:inline;fill:url(#linearGradient1714);fill-opacity:1">
    <rect
       y="-1.2031856e-13"
       x="0"
       height="1143"
       width="2032"
       id="rect854-63-7"
       style="display:inline;fill:url(#linearGradient2722);fill-opacity:1;stroke:none;stroke-width:0.0703792;stroke-opacity:1" />
  </g>
  <g
     inkscape:groupmode="layer"
     id="layer1"
     inkscape:label="Logo"
     style="display:none">
    <circle
       style="fill:none;fill-opacity:1;stroke:#f2f2f2;stroke-width:5;stroke-linecap:round;stroke-dasharray:none;stroke-opacity:1"
       id="path2783"
       cx="1016.0177"
       cy="571.5"
       r="360" />
    <text
       xml:space="preserve"
       style="font-size:685.8px;line-height:1.25;font-family:'Baskerville Handcut';-inkscape-font-specification:'Baskerville Handcut';fill:#f2f2f2;fill-opacity:1;stroke:#f2f2f2;stroke-width:5;stroke-dasharray:none;stroke-opacity:1"
       x="750.61505"
       y="822.15991"
       id="text3481"><tspan
         sodipodi:role="line"
         id="tspan3479"
         style="font-style:normal;font-variant:normal;font-weight:normal;font-stretch:normal;font-size:685.8px;font-family:Arabolical;-inkscape-font-specification:Arabolical;fill:#f2f2f2;fill-opacity:1;stroke:#f2f2f2;stroke-width:5;stroke-dasharray:none;stroke-opacity:1"
         x="750.61505"
         y="822.15991">S</tspan></text>
  </g>
  <g
     inkscape:groupmode="layer"
     id="layer1-3"
     inkscape:label="Logo Outline"
     transform="translate(1.1054687e-5,-1.0625e-5)"
     style="display:none">
    <circle
       style="fill:none;fill-opacity:1;stroke:#f2f2f2;stroke-width:5;stroke-linecap:round;stroke-dasharray:none;stroke-opacity:1"
       id="path2783-6"
       cx="1016.0177"
       cy="571.5"
       r="360" />
    <text
       xml:space="preserve"
       style="font-size:685.8px;line-height:1.25;font-family:'Baskerville Handcut';-inkscape-font-specification:'Baskerville Handcut';fill:none;fill-opacity:1;stroke:#f2f2f2;stroke-width:5;stroke-dasharray:none;stroke-opacity:1"
       x="750.61505"
       y="822.15991"
       id="text3481-7"><tspan
         sodipodi:role="line"
         id="tspan3479-5"
         style="font-style:normal;font-variant:normal;font-weight:normal;font-stretch:normal;font-size:685.8px;font-family:Arabolical;-inkscape-font-specification:Arabolical;fill:none;fill-opacity:1;stroke:#f2f2f2;stroke-width:5;stroke-dasharray:none;stroke-opacity:1"
         x="750.61505"
         y="822.15991">S</tspan></text>
  </g>
  <g
     inkscape:groupmode="layer"
     id="layer16"
     inkscape:label="Slint Logo Text"
     style="display:inline">
    <g
       aria-label="Slint"
       id="text2056-9"
       style="font-size:8.46667px;line-height:1.25;font-family:'Baskerville Handcut';-inkscape-font-specification:'Baskerville Handcut';display:inline;fill:#f2f2f2;stroke-width:0.264583"
       transform="matrix(10,0,0,10,1647.7306,946.33149)">
      <path
         d="m 5.3702972,5.5382601 q 0,-0.2455335 -0.7789336,-0.7281337 L 3.1350963,3.8957261 Q 2.3561627,3.3284592 2.3561627,2.896659 q 0,-0.872067 1.5324673,-1.3885339 1.1599338,-0.3894668 2.2521342,-0.3894668 1.2022671,0 1.2022671,0.3048001 0,0.084667 -0.1185333,0.1693334 -0.1100667,0.0762 -0.2116668,0.093133 Q 5.9121641,1.9060586 5.4464973,2.0584587 4.2272968,2.4563922 4.2272968,2.947459 q 0,0.2794001 0.8551336,0.821267 0.5418669,0.3302002 1.6086674,0.9990671 0.8636003,0.5672669 0.8636003,0.999067 0,0.5672669 -1.0837338,0.9990671 Q 5.7682307,7.0453273 4.887697,7.1977274 4.2357634,7.3077941 3.245163,7.3077941 q -1.4901339,0 -1.4816672,-0.3302001 l 0.00847,-0.059267 Q 1.7888958,6.8167272 2.0005626,6.7066605 2.1360293,6.6389272 3.0842963,6.4441938 4.1341634,6.232527 4.5998303,6.0801269 5.3702972,5.8345935 5.3702972,5.5382601 Z"
         style="font-family:Arabolical;-inkscape-font-specification:Arabolical"
         id="path2064" />
      <path
         d="M 9.5867069,2.7273256 Q 9.6459736,2.5071922 9.8745737,1.8806586 10.23864,0.96625824 10.23864,0.8646582 q 0,-0.0762 -0.0254,-0.10160004 Q 10.08624,0.7799915 9.7814403,1.1863917 9.5189735,1.5335251 9.3411735,1.8298586 8.9601733,2.4648588 8.5876398,3.3369258 8.4860398,3.5739926 8.1812397,4.6492597 8.0203729,5.2165266 8.0203729,5.8261268 q 0,1.6510007 1.1938005,1.6510007 0.4318002,0 0.694267,-0.3725335 Q 9.5867069,7.053794 9.3242401,6.5457938 9.09564,6.1055269 9.09564,5.7837935 q 0,-1.1514671 0.1270001,-1.7610674 0.033867,-0.1524 0.3640668,-1.2954005 z"
         style="font-family:Arabolical;-inkscape-font-specification:Arabolical"
         id="path2066" />
      <path
         d="m 11.305438,1.8552586 q 0,-0.2709335 -0.09313,-0.4572002 -0.05927,-0.1185334 -0.270933,-0.3810001 0.01693,-0.0423334 0.270933,-0.0931334 0.2286,-0.0423334 0.321734,-0.0423334 0.499533,0 0.499533,0.5249336 0,0.3640668 -0.237067,0.6773336 -0.06773,0.093133 -0.296333,0.2455334 -0.2286,0.1524001 -0.321734,0.1524001 l -0.0085,-0.00847 -0.0085,-0.016933 q 0,-0.084667 0.06773,-0.2878668 0.0762,-0.2032001 0.0762,-0.3132668 z m -0.719667,2.7940011 q -0.160867,0.5588002 -0.160867,1.1768671 0,1.6510007 1.1938,1.6510007 0.4318,0 0.694267,-0.3725335 -0.313267,-0.0508 -0.575733,-0.5249335 -0.2032,-0.3640668 -0.270934,-0.7281337 -0.0254,-0.1354667 -0.0254,-0.3048001 0,-0.6434669 0.211667,-1.4562672 0.01693,-0.059267 0.2286,-0.6350003 0.160867,-0.4318001 0.160867,-0.6096002 0,-0.1016001 -0.0508,-0.1185334 -0.990601,0.4741335 -1.405467,1.9219341 z"
         style="font-family:Arabolical;-inkscape-font-specification:Arabolical"
         id="path2068" />
      <path
         d="m 14.226448,3.1252591 q 0.321734,-0.2540001 0.795867,-0.2540001 0.1016,0 0.3048,0.0762 0.2032,0.0762 0.287867,0.1439334 0.127,0.1016001 0.296334,0.2540001 0.169333,0.1524001 0.254,0.2963335 0.245533,0.4233335 0.423333,0.8128003 0.127,0.2878668 0.254,1.0498671 0.110067,0.6604002 0.110067,1.0752671 v 0.4064001 q -0.03387,0.3048002 -0.1778,0.3048002 -0.118533,0 -0.169333,-0.1778001 -0.220134,-1.1938005 -0.601134,-1.8796008 -0.491067,-0.897467 -1.295401,-0.897467 -0.09313,0 -0.2794,0.1016001 -0.186266,0.093133 -0.270933,0.1693334 -0.287867,0.2794001 -0.474134,0.8297336 -0.05927,0.1778001 -0.237066,0.9398004 l -0.06773,0.5249335 q -0.05927,0.4148669 -0.143933,0.4148669 -0.143934,0 -0.2032,-0.3217335 -0.0085,-0.016933 -0.0508,-0.4148668 -0.09313,-0.8382004 -0.0085,-2.0150675 0.0762,-1.1260671 0.2794,-1.4732006 0.03387,-0.059267 0.04233,-0.0762 -0.0254,0.042333 -0.01693,0.042333 0.01693,0 0.09313,0.3725335 0.08467,0.3640668 0.2286,0.3640668 0.09313,0 0.2286,-0.127 0.09313,-0.2201334 0.397933,-0.5418669 z"
         style="font-family:Arabolical;-inkscape-font-specification:Arabolical"
         id="path2070" />
      <path
         d="m 20.144656,2.8881923 q 0.237067,0 0.448734,0.042333 0.321733,0.067733 0.321733,0.1947334 0,0.2032001 -0.5588,0.4148668 -0.04233,0.016933 -0.753533,0.2709335 -0.177801,0.067733 -0.524934,0.2624667 -0.296333,1.2869339 -0.296333,2.4214677 0,0.7281336 0.364066,0.821267 -0.1778,0.4233335 -0.423333,0.4233335 -0.770467,-0.00847 -0.770467,-1.0075338 0,-0.0762 0.0085,-0.2370667 0.0085,-0.1608668 0.0085,-0.2370668 0,-0.4402668 0.169334,-1.4054672 0.0085,-0.0508 0.1016,-0.4064002 0.06773,-0.2624667 0.06773,-0.3979335 0.0085,0 -0.0085,0.00847 -0.01693,0 -0.0085,-0.00847 -0.05927,-0.0762 -0.127,-0.1524 -0.09313,-0.0762 -0.397934,-0.059267 -0.1016,0.00847 -0.321733,0.0508 -0.211667,0.033867 -0.3302,0.033867 h -0.06773 q 0.0085,-0.1439334 0.6604,-0.4402669 0.550334,-0.2540001 0.846667,-0.3386668 0.364067,-1.1430004 0.524934,-1.3123338 0.01693,-0.00847 0.04233,-0.00847 0.194734,0 0.194734,0.5926669 0,0.2116668 -0.05927,0.5588002 0.414867,-0.084667 0.889,-0.084667 z"
         style="font-family:Arabolical;-inkscape-font-specification:Arabolical"
         id="path2072" />
    </g>
  </g>
</svg>
