<?xml version="1.0" encoding="UTF-8" standalone="no"?>
<!-- Creator: fig2dev Version 3.2 Patchlevel 5-alpha5 -->

<!-- CreationDate: Wed Aug 10 22:25:23 2005 -->

<!-- Magnification: 1.000 -->

<svg
   width="3.1in"
   height="2.0in"
   viewBox="101 10438 3735 2454"
   id="svg2"
   sodipodi:version="0.32"
   inkscape:version="1.2.2 (b0a8486541, 2022-12-01)"
   sodipodi:docname="Penguin.svg"
   version="1.1"
   inkscape:export-filename="Penguin.png"
   inkscape:export-xdpi="43.410336"
   inkscape:export-ydpi="43.410336"
   xmlns:inkscape="http://www.inkscape.org/namespaces/inkscape"
   xmlns:sodipodi="http://sodipodi.sourceforge.net/DTD/sodipodi-0.dtd"
   xmlns="http://www.w3.org/2000/svg"
   xmlns:svg="http://www.w3.org/2000/svg"
   xmlns:rdf="http://www.w3.org/1999/02/22-rdf-syntax-ns#"
   xmlns:cc="http://creativecommons.org/ns#"
   xmlns:dc="http://purl.org/dc/elements/1.1/">
  <metadata
     id="metadata131">
    <rdf:RDF>
      <cc:Work
         rdf:about="">
        <dc:format>image/svg+xml</dc:format>
        <dc:type
           rdf:resource="http://purl.org/dc/dcmitype/StillImage" />
      </cc:Work>
    </rdf:RDF>
  </metadata>
  <defs
     id="defs129" />
  <sodipodi:namedview
     id="base"
     pagecolor="#ffffff"
     bordercolor="#666666"
     borderopacity="1.0"
     inkscape:pageopacity="0.0"
     inkscape:pageshadow="2"
     inkscape:window-width="1910"
     inkscape:window-height="1146"
     inkscape:zoom="4.111111"
     inkscape:cx="117.48649"
     inkscape:cy="115.41892"
     inkscape:window-x="3840"
     inkscape:window-y="0"
     inkscape:current-layer="svg2"
     inkscape:showpageshadow="2"
     inkscape:pagecheckerboard="0"
     inkscape:deskcolor="#d1d1d1"
     inkscape:document-units="in"
     showgrid="false"
     inkscape:window-maximized="1" />
  <g
     id="g501"
     transform="translate(-1158.9702,500.74769)"
     inkscape:export-filename="Penguin.png"
     inkscape:export-xdpi="54.84"
     inkscape:export-ydpi="54.84">
    <polyline
       points="3824,10451 3822,10451 3814,10451 3798,10450 3783,10450 3775,10450 3773,10450 3770,10450 3764,10451 3756,10452 3746,10454 3735,10456 3720,10459 3703,10463 3686,10467 3674,10470 3668,10472 3665,10473 3662,10474 3655,10476 3643,10479 3625,10485 3607,10491 3595,10495 3589,10497 3586,10498 3583,10499 3577,10501 3565,10506 3548,10512 3531,10518 3517,10524 3506,10528 3497,10532 3489,10535 3484,10538 3481,10539 3479,10539 3470,10536 3454,10532 3438,10529 3429,10526 3427,10526 3426,10526 3422,10526 3414,10526 3405,10526 3393,10527 3379,10530 3366,10534 3360,10536 3358,10537 3356,10538 3350,10541 3339,10548 3328,10555 3323,10560 3321,10561 3319,10563 3314,10568 3305,10578 3295,10590 3288,10599 3282,10608 3278,10615 3275,10618 3275,10619 3273,10622 3269,10628 3262,10639 3251,10654 3237,10675 3221,10699 3203,10726 3185,10752 3169,10776 3155,10797 3144,10812 3137,10823 3133,10829 3131,10832 3130,10834 3127,10839 3123,10847 3117,10857 3110,10871 3102,10887 3093,10905 3084,10924 3074,10945 3063,10968 3052,10994 3040,11024 3027,11056 3015,11088 3005,11116 2998,11137 2993,11152 2990,11162 2988,11168 2987,11172 2986,11176 2984,11182 2982,11192 2978,11207 2972,11229 2965,11257 2957,11290 2950,11323 2943,11352 2939,11374 2936,11389 2934,11399 2933,11405 2932,11409 2932,11413 2931,11420 2930,11430 2928,11445 2924,11468 2920,11497 2916,11531 2912,11565 2908,11597 2905,11626 2903,11652 2901,11675 2900,11697 2898,11716 2897,11734 2896,11750 2896,11762 2895,11771 2895,11777 2895,11779 2894,11779 2889,11780 2881,11780 2876,11781 2875,11781 2872,11782 2868,11783 2863,11785 2857,11787 2852,11789 2849,11790 2849,11791 2847,11792 2842,11795 2838,11798 2836,11799 2835,11800 2834,11801 2830,11805 2826,11809 2823,11813 2821,11816 2819,11818 2820,11819 2826,11822 2840,11828 2859,11838 2877,11847 2891,11853 2897,11856 2898,11857 2900,11858 2905,11859 2913,11861 2923,11864 2935,11867 2949,11869 2966,11872 2986,11875 3010,11878 3035,11880 3054,11881 3066,11882 3073,11882 3077,11882 3080,11882 3088,11882 3101,11882 3123,11882 3152,11882 3177,11882 3198,11881 3213,11881 3222,11880 3228,11880 3231,11880 3235,11880 3241,11879 3251,11879 3267,11878 3290,11876 3318,11874 3347,11872 3374,11869 3397,11867 3418,11865 3438,11863 3456,11861 3472,11859 3485,11857 3495,11856 3501,11855 3504,11855 3504,11854 3505,11851 3507,11842 3511,11826 3517,11804 3524,11776 3532,11745 3539,11715 3546,11687 3552,11665 3556,11649 3558,11640 3559,11637 3559,11636 3560,11634 3561,11629 3563,11621 3565,11610 3568,11596 3572,11580 3576,11563 3580,11543 3584,11522 3588,11499 3593,11473 3597,11444 3602,11413 3606,11382 3610,11355 3612,11334 3614,11320 3615,11311 3616,11305 3616,11301 3617,11297 3617,11292 3618,11282 3619,11268 3620,11247 3621,11220 3622,11189 3622,11158 3623,11131 3623,11110 3623,11096 3623,11086 3623,11080 3623,11077 3623,11073 3623,11067 3622,11058 3621,11043 3619,11022 3616,10995 3612,10964 3607,10932 3603,10903 3598,10877 3593,10854 3588,10833 3583,10813 3578,10795 3574,10779 3570,10765 3566,10754 3564,10746 3563,10741 3562,10739 3563,10738 3570,10735 3582,10730 3593,10725 3600,10722 3601,10721 3602,10721 3605,10720 3611,10719 3619,10717 3629,10715 3641,10712 3653,10710 3659,10709 3661,10709 3663,10709 3669,10708 3680,10705 3691,10702 3697,10700 3699,10700 3701,10700 3706,10697 3716,10692 3726,10685 3734,10679 3740,10674 3745,10669 3748,10666 3747,10666 3740,10668 3728,10672 3717,10676 3710,10678 3709,10678 3708,10678 3705,10678 3698,10679 3689,10680 3679,10680 3665,10680 3652,10680 3645,10679 3643,10679 3640,10678 3633,10678 3620,10676 3607,10674 3600,10673 3597,10672 3595,10672 3588,10670 3575,10668 3561,10666 3551,10664 3543,10662 3536,10661 3533,10660 3532,10660 3533,10659 3536,10655 3544,10646 3555,10633 3566,10620 3574,10611 3577,10607 3578,10606 3581,10603 3586,10599 3593,10593 3602,10585 3613,10577 3626,10567 3642,10555 3658,10544 3668,10537 3674,10533 3677,10531 3680,10530 3685,10526 3696,10520 3712,10510 3728,10501 3738,10495 3744,10492 3746,10490 3749,10489 3754,10486 3764,10481 3777,10474 3794,10465 3805,10460 3814,10456 3820,10453 3823,10451 3824,10451 "
       style="fill:#000000;stroke:none;stroke-width:0;stroke-linecap:butt;stroke-linejoin:bevel;stroke-miterlimit:4;stroke-dasharray:none;stroke-opacity:1"
       id="polyline6" />
    <polyline
       points="3824,10451 3822,10451 3814,10451 3798,10450 3783,10450 3775,10450 3773,10450 3770,10450 3764,10451 3756,10452 3746,10454 3735,10456 3720,10459 3703,10463 3686,10467 3674,10470 3668,10472 3665,10473 3662,10474 3655,10476 3643,10479 3625,10485 3607,10491 3595,10495 3589,10497 3586,10498 3583,10499 3577,10501 3565,10506 3548,10512 3531,10518 3517,10524 3506,10528 3497,10532 3489,10535 3484,10538 3481,10539 3479,10539 3470,10536 3454,10532 3438,10529 3429,10526 3427,10526 3426,10526 3422,10526 3414,10526 3405,10526 3393,10527 3379,10530 3366,10534 3360,10536 3358,10537 3356,10538 3350,10541 3339,10548 3328,10555 3323,10560 3321,10561 3319,10563 3314,10568 3305,10578 3295,10590 3288,10599 3282,10608 3278,10615 3275,10618 3275,10619 3273,10622 3269,10628 3262,10639 3251,10654 3237,10675 3221,10699 3203,10726 3185,10752 3169,10776 3155,10797 3144,10812 3137,10823 3133,10829 3131,10832 3130,10834 3127,10839 3123,10847 3117,10857 3110,10871 3102,10887 3093,10905 3084,10924 3074,10945 3063,10968 3052,10994 3040,11024 3027,11056 3015,11088 3005,11116 2998,11137 2993,11152 2990,11162 2988,11168 2987,11172 2986,11176 2984,11182 2982,11192 2978,11207 2972,11229 2965,11257 2957,11290 2950,11323 2943,11352 2939,11374 2936,11389 2934,11399 2933,11405 2932,11409 2932,11413 2931,11420 2930,11430 2928,11445 2924,11468 2920,11497 2916,11531 2912,11565 2908,11597 2905,11626 2903,11652 2901,11675 2900,11697 2898,11716 2897,11734 2896,11750 2896,11762 2895,11771 2895,11777 2895,11779 2894,11779 2889,11780 2881,11780 2876,11781 2875,11781 2872,11782 2868,11783 2863,11785 2857,11787 2852,11789 2849,11790 2849,11791 2847,11792 2842,11795 2838,11798 2836,11799 2835,11800 2834,11801 2830,11805 2826,11809 2823,11813 2821,11816 2819,11818 2820,11819 2826,11822 2840,11828 2859,11838 2877,11847 2891,11853 2897,11856 2898,11857 2900,11858 2905,11859 2913,11861 2923,11864 2935,11867 2949,11869 2966,11872 2986,11875 3010,11878 3035,11880 3054,11881 3066,11882 3073,11882 3077,11882 3080,11882 3088,11882 3101,11882 3123,11882 3152,11882 3177,11882 3198,11881 3213,11881 3222,11880 3228,11880 3231,11880 3235,11880 3241,11879 3251,11879 3267,11878 3290,11876 3318,11874 3347,11872 3374,11869 3397,11867 3418,11865 3438,11863 3456,11861 3472,11859 3485,11857 3495,11856 3501,11855 3504,11855 3504,11854 3505,11851 3507,11842 3511,11826 3517,11804 3524,11776 3532,11745 3539,11715 3546,11687 3552,11665 3556,11649 3558,11640 3559,11637 3559,11636 3560,11634 3561,11629 3563,11621 3565,11610 3568,11596 3572,11580 3576,11563 3580,11543 3584,11522 3588,11499 3593,11473 3597,11444 3602,11413 3606,11382 3610,11355 3612,11334 3614,11320 3615,11311 3616,11305 3616,11301 3617,11297 3617,11292 3618,11282 3619,11268 3620,11247 3621,11220 3622,11189 3622,11158 3623,11131 3623,11110 3623,11096 3623,11086 3623,11080 3623,11077 3623,11073 3623,11067 3622,11058 3621,11043 3619,11022 3616,10995 3612,10964 3607,10932 3603,10903 3598,10877 3593,10854 3588,10833 3583,10813 3578,10795 3574,10779 3570,10765 3566,10754 3564,10746 3563,10741 3562,10739 3563,10738 3570,10735 3582,10730 3593,10725 3600,10722 3601,10721 3602,10721 3605,10720 3611,10719 3619,10717 3629,10715 3641,10712 3653,10710 3659,10709 3661,10709 3663,10709 3669,10708 3680,10705 3691,10702 3697,10700 3699,10700 3701,10700 3706,10697 3716,10692 3726,10685 3734,10679 3740,10674 3745,10669 3748,10666 3747,10666 3740,10668 3728,10672 3717,10676 3710,10678 3709,10678 3708,10678 3705,10678 3698,10679 3689,10680 3679,10680 3665,10680 3652,10680 3645,10679 3643,10679 3640,10678 3633,10678 3620,10676 3607,10674 3600,10673 3597,10672 3595,10672 3588,10670 3575,10668 3561,10666 3551,10664 3543,10662 3536,10661 3533,10660 3532,10660 3533,10659 3536,10655 3544,10646 3555,10633 3566,10620 3574,10611 3577,10607 3578,10606 3581,10603 3586,10599 3593,10593 3602,10585 3613,10577 3626,10567 3642,10555 3658,10544 3668,10537 3674,10533 3677,10531 3680,10530 3685,10526 3696,10520 3712,10510 3728,10501 3738,10495 3744,10492 3746,10490 3749,10489 3754,10486 3764,10481 3777,10474 3794,10465 3805,10460 3814,10456 3820,10453 3823,10451 3824,10451 "
       style="fill:none;stroke:none;stroke-width:0;stroke-linecap:butt;stroke-linejoin:bevel;stroke-miterlimit:4;stroke-dasharray:none;stroke-opacity:1"
       id="polyline8" />
    <polyline
       points="3372,11078 3372,11079 3371,11084 3370,11096 3368,11115 3366,11139 3364,11163 3362,11182 3361,11194 3360,11199 3360,11200 3360,11203 3359,11209 3357,11218 3355,11230 3353,11244 3351,11259 3347,11276 3343,11296 3338,11319 3333,11341 3329,11358 3326,11369 3325,11374 3324,11377 3323,11380 3321,11385 3318,11396 3313,11412 3306,11434 3299,11456 3293,11472 3289,11482 3287,11488 3286,11491 3285,11494 3283,11499 3279,11510 3272,11526 3263,11547 3253,11568 3244,11587 3237,11603 3229,11617 3223,11629 3217,11640 3213,11648 3210,11653 3208,11656 3208,11655 3205,11648 3200,11634 3194,11614 3187,11593 3182,11579 3179,11572 3179,11571 3179,11570 3178,11567 3176,11560 3173,11550 3170,11539 3167,11525 3163,11509 3159,11489 3156,11470 3154,11457 3153,11451 3152,11448 3152,11445 3152,11439 3150,11426 3149,11408 3148,11390 3147,11377 3147,11371 3147,11369 3147,11366 3147,11360 3147,11348 3148,11330 3149,11312 3151,11296 3153,11283 3154,11272 3156,11263 3157,11257 3158,11254 3158,11253 3158,11254 3158,11259 3157,11270 3157,11286 3157,11301 3156,11312 3156,11317 3156,11318 3156,11319 3156,11324 3156,11333 3157,11345 3157,11359 3159,11378 3161,11396 3162,11405 3162,11408 3163,11411 3165,11421 3168,11439 3171,11454 3173,11463 3174,11468 3175,11470 3175,11473 3177,11478 3179,11488 3184,11504 3189,11521 3194,11535 3198,11548 3202,11559 3205,11568 3208,11574 3209,11577 3209,11578 3210,11577 3213,11571 3219,11557 3228,11539 3237,11521 3243,11507 3246,11501 3247,11500 3247,11499 3249,11496 3252,11489 3256,11479 3261,11467 3267,11452 3274,11434 3282,11412 3288,11394 3293,11380 3296,11372 3298,11367 3298,11365 3299,11362 3301,11358 3304,11348 3308,11334 3314,11314 3320,11294 3324,11278 3327,11269 3329,11264 3329,11261 3330,11258 3332,11252 3334,11242 3338,11225 3344,11203 3350,11180 3354,11159 3359,11141 3362,11125 3365,11111 3368,11098 3370,11088 3371,11081 3372,11078 "
       style="fill:#ffffff;stroke:none;stroke-width:0;stroke-linecap:butt;stroke-linejoin:bevel;stroke-miterlimit:4;stroke-dasharray:none;stroke-opacity:1"
       id="polyline10" />
    <polyline
       points="3372,11078 3372,11079 3371,11084 3370,11096 3368,11115 3366,11139 3364,11163 3362,11182 3361,11194 3360,11199 3360,11200 3360,11203 3359,11209 3357,11218 3355,11230 3353,11244 3351,11259 3347,11276 3343,11296 3338,11319 3333,11341 3329,11358 3326,11369 3325,11374 3324,11377 3323,11380 3321,11385 3318,11396 3313,11412 3306,11434 3299,11456 3293,11472 3289,11482 3287,11488 3286,11491 3285,11494 3283,11499 3279,11510 3272,11526 3263,11547 3253,11568 3244,11587 3237,11603 3229,11617 3223,11629 3217,11640 3213,11648 3210,11653 3208,11656 3208,11655 3205,11648 3200,11634 3194,11614 3187,11593 3182,11579 3179,11572 3179,11571 3179,11570 3178,11567 3176,11560 3173,11550 3170,11539 3167,11525 3163,11509 3159,11489 3156,11470 3154,11457 3153,11451 3152,11448 3152,11445 3152,11439 3150,11426 3149,11408 3148,11390 3147,11377 3147,11371 3147,11369 3147,11366 3147,11360 3147,11348 3148,11330 3149,11312 3151,11296 3153,11283 3154,11272 3156,11263 3157,11257 3158,11254 3158,11253 3158,11254 3158,11259 3157,11270 3157,11286 3157,11301 3156,11312 3156,11317 3156,11318 3156,11319 3156,11324 3156,11333 3157,11345 3157,11359 3159,11378 3161,11396 3162,11405 3162,11408 3163,11411 3165,11421 3168,11439 3171,11454 3173,11463 3174,11468 3175,11470 3175,11473 3177,11478 3179,11488 3184,11504 3189,11521 3194,11535 3198,11548 3202,11559 3205,11568 3208,11574 3209,11577 3209,11578 3210,11577 3213,11571 3219,11557 3228,11539 3237,11521 3243,11507 3246,11501 3247,11500 3247,11499 3249,11496 3252,11489 3256,11479 3261,11467 3267,11452 3274,11434 3282,11412 3288,11394 3293,11380 3296,11372 3298,11367 3298,11365 3299,11362 3301,11358 3304,11348 3308,11334 3314,11314 3320,11294 3324,11278 3327,11269 3329,11264 3329,11261 3330,11258 3332,11252 3334,11242 3338,11225 3344,11203 3350,11180 3354,11159 3359,11141 3362,11125 3365,11111 3368,11098 3370,11088 3371,11081 3372,11078 "
       style="fill:none;stroke:none;stroke-width:0;stroke-linecap:butt;stroke-linejoin:bevel;stroke-miterlimit:4;stroke-dasharray:none;stroke-opacity:1"
       id="polyline12" />
    <polyline
       points="3458,10603 3460,10604 3462,10605 3464,10606 3465,10607 3466,10608 3467,10609 3469,10611 3470,10613 3471,10614 3472,10616 3473,10618 3474,10621 3474,10622 3474,10623 3474,10626 3474,10629 3474,10632 3474,10634 3474,10635 3473,10637 3472,10641 3471,10643 3470,10644 3469,10646 3468,10648 3466,10650 3464,10652 3463,10653 3462,10654 3460,10655 3458,10656 3457,10656 3456,10656 3455,10657 3453,10657 3450,10657 3449,10657 3447,10657 3446,10657 3444,10656 3442,10656 3440,10655 3439,10654 3438,10653 3437,10652 3435,10650 3434,10648 3433,10647 3432,10645 3431,10643 3430,10640 3430,10639 3430,10638 3430,10635 3430,10632 3430,10629 3431,10627 3431,10626 3432,10624 3433,10620 3434,10618 3434,10617 3435,10615 3436,10613 3438,10611 3440,10609 3441,10608 3442,10607 3444,10606 3446,10605 3447,10604 3448,10604 3449,10604 3451,10603 3454,10603 3455,10603 3457,10603 3458,10603 "
       style="fill:#ffffff;stroke:none;stroke-width:0;stroke-linecap:butt;stroke-linejoin:bevel;stroke-miterlimit:4;stroke-dasharray:none;stroke-opacity:1"
       id="polyline14" />
    <polyline
       points="3458,10603 3460,10604 3462,10605 3464,10606 3465,10607 3466,10608 3467,10609 3469,10611 3470,10613 3471,10614 3472,10616 3473,10618 3474,10621 3474,10622 3474,10623 3474,10626 3474,10629 3474,10632 3474,10634 3474,10635 3473,10637 3472,10641 3471,10643 3470,10644 3469,10646 3468,10648 3466,10650 3464,10652 3463,10653 3462,10654 3460,10655 3458,10656 3457,10656 3456,10656 3455,10657 3453,10657 3450,10657 3449,10657 3447,10657 3446,10657 3444,10656 3442,10656 3440,10655 3439,10654 3438,10653 3437,10652 3435,10650 3434,10648 3433,10647 3432,10645 3431,10643 3430,10640 3430,10639 3430,10638 3430,10635 3430,10632 3430,10629 3431,10627 3431,10626 3432,10624 3433,10620 3434,10618 3434,10617 3435,10615 3436,10613 3438,10611 3440,10609 3441,10608 3442,10607 3444,10606 3446,10605 3447,10604 3448,10604 3449,10604 3451,10603 3454,10603 3455,10603 3457,10603 3458,10603 "
       style="fill:none;stroke:none;stroke-width:0;stroke-linecap:butt;stroke-linejoin:bevel;stroke-miterlimit:4;stroke-dasharray:none;stroke-opacity:1"
       id="polyline16" />
    <polyline
       points="3556,10746 3555,10747 3547,10753 3537,10761 3529,10767 3528,10768 3525,10770 3520,10773 3513,10776 3504,10779 3492,10783 3480,10786 3473,10787 3470,10788 3468,10788 3460,10789 3445,10790 3429,10790 3421,10791 3418,10791 3414,10791 3405,10790 3386,10788 3370,10786 3356,10784 3344,10781 3333,10779 3324,10777 3318,10776 3315,10775 3314,10775 3314,10776 3311,10782 3306,10794 3301,10805 3298,10811 3298,10812 3298,10813 3297,10816 3295,10821 3293,10828 3290,10837 3288,10849 3286,10860 3285,10866 3285,10868 3285,10870 3285,10876 3284,10887 3284,10898 3283,10904 3283,10906 3283,10908 3283,10913 3284,10924 3285,10935 3287,10944 3288,10952 3289,10957 3290,10960 3290,10961 3292,10962 3300,10964 3315,10970 3330,10975 3338,10977 3340,10978 3341,10978 3344,10980 3351,10983 3360,10987 3370,10992 3382,11000 3393,11008 3399,11012 3401,11014 3403,11015 3408,11020 3416,11030 3424,11040 3427,11046 3429,11048 3430,11050 3432,11056 3437,11069 3441,11083 3443,11095 3444,11105 3445,11114 3445,11118 3445,11119 3445,11120 3444,11124 3442,11131 3441,11135 3441,11136 3441,11139 3440,11142 3439,11147 3437,11153 3435,11158 3434,11161 3433,11164 3431,11169 3429,11175 3428,11177 3427,11178 3426,11180 3424,11186 3421,11192 3420,11196 3418,11200 3417,11202 3417,11203 3419,11207 3421,11214 3423,11218 3423,11219 3424,11221 3426,11224 3428,11228 3431,11233 3434,11237 3436,11239 3436,11240 3438,11242 3441,11246 3444,11250 3445,11251 3446,11252 3447,11253 3450,11257 3453,11261 3456,11265 3458,11268 3459,11270 3459,11271 3458,11276 3456,11289 3453,11309 3448,11334 3444,11358 3441,11378 3439,11391 3438,11396 3438,11397 3437,11400 3436,11406 3433,11416 3430,11428 3426,11441 3421,11457 3416,11474 3409,11494 3401,11517 3393,11539 3387,11556 3383,11566 3381,11572 3379,11575 3378,11578 3376,11583 3371,11593 3364,11610 3355,11631 3346,11652 3338,11669 3334,11679 3331,11684 3329,11687 3328,11689 3325,11695 3320,11705 3313,11721 3303,11742 3293,11764 3284,11783 3277,11799 3270,11813 3265,11826 3260,11837 3256,11846 3253,11851 3252,11854 3253,11854 3256,11853 3265,11852 3280,11850 3301,11847 3328,11844 3358,11839 3387,11835 3414,11832 3435,11829 3450,11827 3459,11826 3462,11825 3463,11825 3463,11824 3464,11820 3467,11811 3472,11794 3480,11771 3489,11742 3499,11709 3508,11676 3517,11647 3525,11624 3530,11607 3533,11598 3534,11594 3534,11593 3535,11591 3536,11586 3538,11578 3541,11567 3544,11552 3549,11536 3553,11518 3557,11499 3562,11478 3567,11454 3572,11429 3577,11400 3582,11369 3587,11339 3590,11312 3593,11292 3595,11278 3596,11269 3597,11264 3597,11260 3597,11256 3598,11251 3598,11242 3599,11228 3600,11209 3602,11183 3603,11154 3604,11125 3604,11100 3604,11080 3604,11067 3604,11058 3605,11053 3605,11049 3605,11046 3604,11041 3604,11032 3603,11019 3601,11000 3599,10975 3596,10947 3592,10918 3589,10892 3585,10869 3581,10848 3577,10829 3573,10812 3569,10796 3565,10781 3562,10769 3560,10759 3558,10752 3557,10748 3556,10746 "
       style="fill:#ffffff;stroke:none;stroke-width:0;stroke-linecap:butt;stroke-linejoin:bevel;stroke-miterlimit:4;stroke-dasharray:none;stroke-opacity:1"
       id="polyline18" />
    <polyline
       points="3556,10746 3555,10747 3547,10753 3537,10761 3529,10767 3528,10768 3525,10770 3520,10773 3513,10776 3504,10779 3492,10783 3480,10786 3473,10787 3470,10788 3468,10788 3460,10789 3445,10790 3429,10790 3421,10791 3418,10791 3414,10791 3405,10790 3386,10788 3370,10786 3356,10784 3344,10781 3333,10779 3324,10777 3318,10776 3315,10775 3314,10775 3314,10776 3311,10782 3306,10794 3301,10805 3298,10811 3298,10812 3298,10813 3297,10816 3295,10821 3293,10828 3290,10837 3288,10849 3286,10860 3285,10866 3285,10868 3285,10870 3285,10876 3284,10887 3284,10898 3283,10904 3283,10906 3283,10908 3283,10913 3284,10924 3285,10935 3287,10944 3288,10952 3289,10957 3290,10960 3290,10961 3292,10962 3300,10964 3315,10970 3330,10975 3338,10977 3340,10978 3341,10978 3344,10980 3351,10983 3360,10987 3370,10992 3382,11000 3393,11008 3399,11012 3401,11014 3403,11015 3408,11020 3416,11030 3424,11040 3427,11046 3429,11048 3430,11050 3432,11056 3437,11069 3441,11083 3443,11095 3444,11105 3445,11114 3445,11118 3445,11119 3445,11120 3444,11124 3442,11131 3441,11135 3441,11136 3441,11139 3440,11142 3439,11147 3437,11153 3435,11158 3434,11161 3433,11164 3431,11169 3429,11175 3428,11177 3427,11178 3426,11180 3424,11186 3421,11192 3420,11196 3418,11200 3417,11202 3417,11203 3419,11207 3421,11214 3423,11218 3423,11219 3424,11221 3426,11224 3428,11228 3431,11233 3434,11237 3436,11239 3436,11240 3438,11242 3441,11246 3444,11250 3445,11251 3446,11252 3447,11253 3450,11257 3453,11261 3456,11265 3458,11268 3459,11270 3459,11271 3458,11276 3456,11289 3453,11309 3448,11334 3444,11358 3441,11378 3439,11391 3438,11396 3438,11397 3437,11400 3436,11406 3433,11416 3430,11428 3426,11441 3421,11457 3416,11474 3409,11494 3401,11517 3393,11539 3387,11556 3383,11566 3381,11572 3379,11575 3378,11578 3376,11583 3371,11593 3364,11610 3355,11631 3346,11652 3338,11669 3334,11679 3331,11684 3329,11687 3328,11689 3325,11695 3320,11705 3313,11721 3303,11742 3293,11764 3284,11783 3277,11799 3270,11813 3265,11826 3260,11837 3256,11846 3253,11851 3252,11854 3253,11854 3256,11853 3265,11852 3280,11850 3301,11847 3328,11844 3358,11839 3387,11835 3414,11832 3435,11829 3450,11827 3459,11826 3462,11825 3463,11825 3463,11824 3464,11820 3467,11811 3472,11794 3480,11771 3489,11742 3499,11709 3508,11676 3517,11647 3525,11624 3530,11607 3533,11598 3534,11594 3534,11593 3535,11591 3536,11586 3538,11578 3541,11567 3544,11552 3549,11536 3553,11518 3557,11499 3562,11478 3567,11454 3572,11429 3577,11400 3582,11369 3587,11339 3590,11312 3593,11292 3595,11278 3596,11269 3597,11264 3597,11260 3597,11256 3598,11251 3598,11242 3599,11228 3600,11209 3602,11183 3603,11154 3604,11125 3604,11100 3604,11080 3604,11067 3604,11058 3605,11053 3605,11049 3605,11046 3604,11041 3604,11032 3603,11019 3601,11000 3599,10975 3596,10947 3592,10918 3589,10892 3585,10869 3581,10848 3577,10829 3573,10812 3569,10796 3565,10781 3562,10769 3560,10759 3558,10752 3557,10748 3556,10746 "
       style="fill:none;stroke:none;stroke-width:0;stroke-linecap:butt;stroke-linejoin:bevel;stroke-miterlimit:4;stroke-dasharray:none;stroke-opacity:1"
       id="polyline20" />
  </g>
  <polyline
     points="2805,12346 2805,12348 2803,12358 2799,12377 2795,12395 2793,12405 2793,12407 2793,12408 2791,12413 2788,12421 2784,12432 2779,12445 2770,12460 2761,12473 2756,12480 2755,12483 2753,12485 2747,12491 2734,12501 2720,12511 2713,12515 2710,12517 2707,12519 2698,12522 2680,12528 2664,12532 2649,12535 2637,12536 2625,12537 2615,12538 2608,12538 2605,12538 2604,12538 2603,12538 2597,12537 2585,12535 2568,12533 2550,12531 2538,12529 2532,12528 2531,12528 2530,12528 2525,12526 2517,12523 2507,12518 2495,12511 2483,12501 2473,12491 2468,12485 2467,12483 2466,12480 2463,12473 2457,12460 2452,12446 2450,12438 2450,12435 2450,12432 2449,12423 2448,12407 2448,12389 2449,12374 2450,12362 2451,12352 2452,12347 2452,12346 2452,12342 2453,12335 2455,12321 2458,12301 2461,12274 2465,12241 2470,12203 2475,12162 2480,12122 2485,12084 2489,12051 2492,12024 2495,12004 2497,11990 2498,11983 2498,11979 2499,11979 2504,11979 2517,11979 2537,11979 2561,11979 2585,11979 2605,11979 2618,11979 2623,11979 2624,11979 2624,11982 2623,11988 2621,11999 2619,12016 2616,12040 2613,12069 2608,12103 2604,12141 2598,12182 2593,12222 2589,12260 2584,12294 2581,12323 2578,12347 2576,12364 2574,12375 2573,12381 2573,12384 2573,12385 2573,12391 2572,12400 2572,12406 2572,12407 2572,12408 2572,12410 2573,12414 2574,12420 2576,12426 2578,12431 2579,12433 2579,12434 2581,12436 2584,12440 2588,12444 2589,12445 2590,12446 2592,12447 2597,12449 2603,12451 2608,12452 2612,12452 2614,12452 2615,12452 2616,12452 2621,12451 2627,12450 2632,12449 2633,12449 2636,12448 2639,12446 2644,12444 2649,12440 2653,12436 2655,12434 2655,12433 2657,12431 2660,12426 2663,12420 2665,12418 2665,12417 2666,12414 2669,12407 2671,12399 2673,12393 2673,12388 2674,12385 2674,12384 2674,12381 2675,12375 2677,12364 2679,12347 2682,12323 2685,12294 2690,12260 2694,12222 2700,12181 2705,12141 2709,12103 2714,12069 2717,12040 2720,12016 2722,11999 2724,11988 2725,11982 2725,11979 2726,11979 2731,11979 2744,11979 2764,11979 2788,11979 2812,11979 2832,11979 2845,11979 2850,11979 2851,11979 2851,11983 2850,11990 2848,12004 2845,12024 2842,12051 2838,12084 2833,12122 2828,12163 2823,12203 2818,12241 2814,12274 2811,12301 2808,12321 2806,12335 2805,12342 2805,12346 "
     style="fill:none;stroke:none;stroke-width:0;stroke-linecap:butt;stroke-linejoin:bevel;stroke-miterlimit:4;stroke-dasharray:none;stroke-opacity:1"
     id="polyline88" />
  <polyline
     points="2910,11979 3036,11979 2967,12527 2841,12527 2910,11979 "
     style="fill:none;stroke:none;stroke-width:0;stroke-linecap:butt;stroke-linejoin:miter;stroke-miterlimit:4;stroke-dasharray:none;stroke-opacity:1"
     id="polyline92" />
  <polyline
     points="3101,11979 3246,11979 3305,12335 3307,12335 3351,11979 3469,11979 3400,12527 3257,12527 3194,12149 3192,12149 3145,12527 3032,12527 3101,11979 "
     style="fill:none;stroke:none;stroke-width:0;stroke-linecap:butt;stroke-linejoin:miter;stroke-miterlimit:4;stroke-dasharray:none;stroke-opacity:1"
     id="polyline96" />
</svg>
