<?xml version="1.0" encoding="UTF-8" standalone="no"?>
<svg
   width="230pt"
   height="166pt"
   viewBox="0 0 230 166"
   version="1.2"
   id="svg99"
   sodipodi:docname="Penguin.svg"
   inkscape:version="1.2.2 (b0a8486541, 2022-12-01)"
   xmlns:inkscape="http://www.inkscape.org/namespaces/inkscape"
   xmlns:sodipodi="http://sodipodi.sourceforge.net/DTD/sodipodi-0.dtd"
   xmlns="http://www.w3.org/2000/svg"
   xmlns:svg="http://www.w3.org/2000/svg">
  <defs
     id="defs103" />
  <sodipodi:namedview
     id="namedview101"
     pagecolor="#ffffff"
     bordercolor="#666666"
     borderopacity="1.0"
     inkscape:showpageshadow="2"
     inkscape:pageopacity="0.0"
     inkscape:pagecheckerboard="0"
     inkscape:deskcolor="#d1d1d1"
     inkscape:document-units="pt"
     showgrid="false"
     inkscape:zoom="2.1325301"
     inkscape:cx="106.44633"
     inkscape:cy="56.50565"
     inkscape:window-width="1910"
     inkscape:window-height="1146"
     inkscape:window-x="3840"
     inkscape:window-y="0"
     inkscape:window-maximized="1"
     inkscape:current-layer="svg99" />
  <g
     id="g442"
     transform="translate(-86.635268,38.732098)">
    <path
       style="fill:#000000;fill-opacity:1;fill-rule:evenodd;stroke:none"
       d="m 229.48828,1.066406 c -3.9375,-0.859375 -14.79297,2.636719 -20.57031,5.320313 -5.90625,-2.171875 -9.63672,0.253906 -12.37891,4.765625 -16.67969,20.71875 -21.60937,44.644531 -22.78515,69.59375 -2.15235,0.152344 -3.67188,0.941406 -4.5586,2.363281 5.95313,4.9375 21.72656,4.535156 41.05469,2.210937 5.85156,-21.699218 10.85156,-44.523437 3.49219,-66.953124 3.86328,-2.457032 8.23437,-0.957032 11.15625,-4.367188 -3.64844,1.761719 -8.8086,0.414062 -12.9336,-0.394531 3.34766,-5.394531 14.02344,-10.9375 17.52344,-12.539063"
       id="path2" />
    <path
       style="fill:none;stroke:#000000;stroke-width:0.1476;stroke-linecap:butt;stroke-linejoin:miter;stroke-miterlimit:2.4142;stroke-opacity:1"
       d="m 229.48828,1.06641 c -3.9375,-0.85938 -14.79297,2.63671 -20.57031,5.32031 -5.90625,-2.17188 -9.63672,0.2539 -12.37891,4.76562 -16.67968,20.71875 -21.60937,44.64453 -22.78515,69.593754 -2.15235,0.152344 -3.67188,0.941406 -4.5586,2.363281 5.95313,4.9375 21.72657,4.535156 41.05469,2.210938 5.85156,-21.699223 10.85156,-44.523443 3.49219,-66.953123 3.86328,-2.45703 8.23437,-0.95703 11.15625,-4.36719 -3.64844,1.76172 -8.8086,0.41406 -12.9336,-0.39453 3.34766,-5.39453 14.02344,-10.9375 17.52344,-12.53906 z m 0,0"
       id="path4" />
    <path
       style="fill:#ffffff;fill-opacity:1;fill-rule:evenodd;stroke:none"
       d="m 202.35937,38.714844 c -0.71093,12.328125 -3.82031,23.929687 -9.82421,34.652344 -3.46094,-8.558594 -4.46875,-16.609376 -3.02344,-24.148438 -0.47266,6.8125 0.17187,11.496094 3.03125,19.507812 3.96875,-7.433593 7.15625,-16.777343 9.8164,-30.011718"
       id="path6" />
    <path
       style="fill:none;stroke:#000000;stroke-width:0.1476;stroke-linecap:butt;stroke-linejoin:miter;stroke-miterlimit:2.4142;stroke-opacity:1"
       d="m 202.35938,38.71484 c -0.71094,12.32813 -3.82032,23.92969 -9.82422,34.652348 -3.46094,-8.558598 -4.46875,-16.609378 -3.02344,-24.148438 -0.47266,6.8125 0.17187,11.49609 3.03125,19.507813 3.96875,-7.433593 7.15625,-16.777343 9.81641,-30.011723 z m 0,0"
       id="path8" />
    <path
       style="fill:#ffffff;fill-opacity:1;fill-rule:evenodd;stroke:none"
       d="m 207.50781,10.234375 c 0.71094,0.144531 1.12891,0.992187 0.9336,1.886719 -0.19532,0.894531 -0.92579,1.5 -1.64063,1.351562 -0.70703,-0.144531 -1.12891,-0.992187 -0.93359,-1.886718 0.19531,-0.894532 0.92578,-1.5 1.64062,-1.351563"
       id="path10" />
    <path
       style="fill:none;stroke:#000000;stroke-width:0.1476;stroke-linecap:butt;stroke-linejoin:miter;stroke-miterlimit:2.4142;stroke-opacity:1"
       d="m 207.50781,10.23437 c 0.71094,0.14454 1.12891,0.99219 0.9336,1.88672 -0.19532,0.89453 -0.92578,1.5 -1.64063,1.35157 -0.70703,-0.14454 -1.1289,-0.99219 -0.93359,-1.88672 0.19531,-0.89453 0.92578,-1.5 1.64062,-1.35157 z m 0,0"
       id="path12" />
    <path
       style="fill:#ffffff;fill-opacity:1;fill-rule:evenodd;stroke:none"
       d="m 213.39453,18.800781 c -2.42187,2.46875 -6.57031,3.585938 -14.52734,1.730469 -1.81641,3.710938 -2.28907,7.441406 -1.41407,11.183594 5.21485,1.445312 9.28516,3.804687 9.27344,9.445312 -0.30859,1.71875 -0.87109,3.382813 -1.6914,4.992188 0.53125,1.890625 1.69921,2.726562 2.54687,4.09375 -1.20312,13.195312 -7.47266,23.765625 -12.44531,35.011718 l 12.70312,-1.714843 c 8.14453,-23.71875 11.21485,-45.015625 5.55469,-64.742188"
       id="path14" />
    <path
       style="fill:none;stroke:#000000;stroke-width:0.1476;stroke-linecap:butt;stroke-linejoin:miter;stroke-miterlimit:2.4142;stroke-opacity:1"
       d="m 213.39453,18.80078 c -2.42187,2.46875 -6.57031,3.58594 -14.52734,1.73047 -1.81641,3.71094 -2.28906,7.44141 -1.41406,11.18359 5.21484,1.44532 9.28515,3.80469 9.27343,9.44532 -0.30859,1.71875 -0.87109,3.38281 -1.6914,4.99218 0.53125,1.89063 1.69922,2.72657 2.54687,4.09375 -1.20312,13.19532 -7.47265,23.765629 -12.44531,35.011723 l 12.70312,-1.714844 C 215.98438,59.82422 219.05469,38.52734 213.39453,18.80078 Z m 0,0"
       id="path16" />
  </g>
</svg>
