<svg xmlns="http://www.w3.org/2000/svg" viewBox="101 10438 3735 2454"><path d="M3824 10451h-10l-16-1h-28l-6 1-8 1-10 2-11 2-15 3-17 4-17 4-12 3-6 2-3 1-3 1-7 2-12 3-18 6-18 6-12 4-6 2-3 1-3 1-6 2-12 5-17 6-17 6-14 6-11 4-9 4-8 3-5 3-3 1h-2l-9-3-16-4-16-3-9-3h-24l-12 1-14 3-13 4-6 2-2 1-2 1-6 3-11 7-11 7-5 5-2 1-2 2-5 5-9 10-10 12-7 9-6 9-4 7-3 3v1l-2 3-4 6-7 11-11 15-14 21-16 24-18 27-18 26-16 24-14 21-11 15-7 11-4 6-2 3-1 2-3 5-4 8-6 10-7 14-8 16-9 18-9 19-10 21-11 23-11 26-12 30-13 32-12 32-10 28-7 21-5 15-3 10-2 6-1 4-1 4-2 6-2 10-4 15-6 22-7 28-8 33-7 33-7 29-4 22-3 15-2 10-1 6-1 4v4l-1 7-1 10-2 15-4 23-4 29-4 34-4 34-4 32-3 29-2 26-2 23-1 22-2 19-1 18-1 16v12l-1 9v8h-1l-5 1h-8l-5 1h-1l-3 1-4 1-5 2-6 2-5 2-3 1v1l-2 1-5 3-4 3-2 1-1 1-1 1-4 4-4 4-3 4-2 3-2 2 1 1 6 3 14 6 19 10 18 9 14 6 6 3 1 1 2 1 5 1 8 2 10 3 12 3 14 2 17 3 20 3 24 3 25 2 19 1 12 1h111l21-1h15l9-1h13l6-1h10l16-1 23-2 28-2 29-2 27-3 23-2 21-2 20-2 18-2 16-2 13-2 10-1 6-1h3v-1l1-3 2-9 4-16 6-22 7-28 8-31 7-30 7-28 6-22 4-16 2-9 1-3v-1l1-2 1-5 2-8 2-11 3-14 4-16 4-17 4-20 4-21 4-23 5-26 4-29 5-31 4-31 4-27 2-21 2-14 1-9 1-6v-4l1-4v-5l1-10 1-14 1-21 1-27 1-31v-31l1-27v-64l-1-9-1-15-2-21-3-27-4-31-5-32-4-29-5-26-5-23-5-21-5-20-5-18-4-16-4-14-4-11-2-8-1-5-1-2 1-1 7-3 12-5 11-5 7-3 1-1h1l3-1 6-1 8-2 10-2 12-3 12-2 6-1h4l6-1 11-3 11-3 6-2h4l5-3 10-5 10-7 8-6 6-5 5-5 3-3h-1l-7 2-12 4-11 4-7 2h-5l-7 1-9 1h-37l-7-1h-2l-3-1h-7l-13-2-13-2-7-1-3-1h-2l-7-2-13-2-14-2-10-2-8-2-7-1-3-1h-1l1-1 3-4 8-9 11-13 11-13 8-9 3-4 1-1 3-3 5-4 7-6 9-8 11-8 13-10 16-12 16-11 10-7 6-4 3-2 3-1 5-4 11-6 16-10 16-9 10-6 6-3 2-2 3-1 5-3 10-5 13-7 17-9 11-5 9-4 6-3 3-2h1" style="fill:#000;stroke:none;stroke-width:0;stroke-linecap:butt;stroke-linejoin:bevel;stroke-miterlimit:4;stroke-dasharray:none;stroke-opacity:1" transform="translate(-1158.97 500.748)"/><path d="M3824 10451h-10l-16-1h-28l-6 1-8 1-10 2-11 2-15 3-17 4-17 4-12 3-6 2-3 1-3 1-7 2-12 3-18 6-18 6-12 4-6 2-3 1-3 1-6 2-12 5-17 6-17 6-14 6-11 4-9 4-8 3-5 3-3 1h-2l-9-3-16-4-16-3-9-3h-24l-12 1-14 3-13 4-6 2-2 1-2 1-6 3-11 7-11 7-5 5-2 1-2 2-5 5-9 10-10 12-7 9-6 9-4 7-3 3v1l-2 3-4 6-7 11-11 15-14 21-16 24-18 27-18 26-16 24-14 21-11 15-7 11-4 6-2 3-1 2-3 5-4 8-6 10-7 14-8 16-9 18-9 19-10 21-11 23-11 26-12 30-13 32-12 32-10 28-7 21-5 15-3 10-2 6-1 4-1 4-2 6-2 10-4 15-6 22-7 28-8 33-7 33-7 29-4 22-3 15-2 10-1 6-1 4v4l-1 7-1 10-2 15-4 23-4 29-4 34-4 34-4 32-3 29-2 26-2 23-1 22-2 19-1 18-1 16v12l-1 9v8h-1l-5 1h-8l-5 1h-1l-3 1-4 1-5 2-6 2-5 2-3 1v1l-2 1-5 3-4 3-2 1-1 1-1 1-4 4-4 4-3 4-2 3-2 2 1 1 6 3 14 6 19 10 18 9 14 6 6 3 1 1 2 1 5 1 8 2 10 3 12 3 14 2 17 3 20 3 24 3 25 2 19 1 12 1h111l21-1h15l9-1h13l6-1h10l16-1 23-2 28-2 29-2 27-3 23-2 21-2 20-2 18-2 16-2 13-2 10-1 6-1h3v-1l1-3 2-9 4-16 6-22 7-28 8-31 7-30 7-28 6-22 4-16 2-9 1-3v-1l1-2 1-5 2-8 2-11 3-14 4-16 4-17 4-20 4-21 4-23 5-26 4-29 5-31 4-31 4-27 2-21 2-14 1-9 1-6v-4l1-4v-5l1-10 1-14 1-21 1-27 1-31v-31l1-27v-64l-1-9-1-15-2-21-3-27-4-31-5-32-4-29-5-26-5-23-5-21-5-20-5-18-4-16-4-14-4-11-2-8-1-5-1-2 1-1 7-3 12-5 11-5 7-3 1-1h1l3-1 6-1 8-2 10-2 12-3 12-2 6-1h4l6-1 11-3 11-3 6-2h4l5-3 10-5 10-7 8-6 6-5 5-5 3-3h-1l-7 2-12 4-11 4-7 2h-5l-7 1-9 1h-37l-7-1h-2l-3-1h-7l-13-2-13-2-7-1-3-1h-2l-7-2-13-2-14-2-10-2-8-2-7-1-3-1h-1l1-1 3-4 8-9 11-13 11-13 8-9 3-4 1-1 3-3 5-4 7-6 9-8 11-8 13-10 16-12 16-11 10-7 6-4 3-2 3-1 5-4 11-6 16-10 16-9 10-6 6-3 2-2 3-1 5-3 10-5 13-7 17-9 11-5 9-4 6-3 3-2h1" style="fill:none;stroke:none;stroke-width:0;stroke-linecap:butt;stroke-linejoin:bevel;stroke-miterlimit:4;stroke-dasharray:none;stroke-opacity:1" transform="translate(-1158.97 500.748)"/><path d="M3372 11078v1l-1 5-1 12-2 19-2 24-2 24-2 19-1 12-1 5v4l-1 6-2 9-2 12-2 14-2 15-4 17-4 20-5 23-5 22-4 17-3 11-1 5-1 3-1 3-2 5-3 11-5 16-7 22-7 22-6 16-4 10-2 6-1 3-1 3-2 5-4 11-7 16-9 21-10 21-9 19-7 16-8 14-6 12-6 11-4 8-3 5-2 3v-1l-3-7-5-14-6-20-7-21-5-14-3-7v-2l-1-3-2-7-3-10-3-11-3-14-4-16-4-20-3-19-2-13-1-6-1-3v-9l-2-13-1-18-1-18-1-13v-29l1-18 1-18 2-16 2-13 1-11 2-9 1-6 1-3v-1 6l-1 11v31l-1 11v21l1 12v14l2 19 2 18 1 9v3l1 3 2 10 3 18 3 15 2 9 1 5 1 2v3l2 5 2 10 5 16 5 17 5 14 4 13 4 11 3 9 3 6 1 3v1l1-1 3-6 6-14 9-18 9-18 6-14 3-6 1-1v-1l2-3 3-7 4-10 5-12 6-15 7-18 8-22 6-18 5-14 3-8 2-5v-2l1-3 2-4 3-10 4-14 6-20 6-20 4-16 3-9 2-5v-3l1-3 2-6 2-10 4-17 6-22 6-23 4-21 5-18 3-16 3-14 3-13 2-10 1-7 1-3" style="fill:#fff;stroke:none;stroke-width:0;stroke-linecap:butt;stroke-linejoin:bevel;stroke-miterlimit:4;stroke-dasharray:none;stroke-opacity:1" transform="translate(-1158.97 500.748)"/><path d="M3372 11078v1l-1 5-1 12-2 19-2 24-2 24-2 19-1 12-1 5v4l-1 6-2 9-2 12-2 14-2 15-4 17-4 20-5 23-5 22-4 17-3 11-1 5-1 3-1 3-2 5-3 11-5 16-7 22-7 22-6 16-4 10-2 6-1 3-1 3-2 5-4 11-7 16-9 21-10 21-9 19-7 16-8 14-6 12-6 11-4 8-3 5-2 3v-1l-3-7-5-14-6-20-7-21-5-14-3-7v-2l-1-3-2-7-3-10-3-11-3-14-4-16-4-20-3-19-2-13-1-6-1-3v-9l-2-13-1-18-1-18-1-13v-29l1-18 1-18 2-16 2-13 1-11 2-9 1-6 1-3v-1 6l-1 11v31l-1 11v21l1 12v14l2 19 2 18 1 9v3l1 3 2 10 3 18 3 15 2 9 1 5 1 2v3l2 5 2 10 5 16 5 17 5 14 4 13 4 11 3 9 3 6 1 3v1l1-1 3-6 6-14 9-18 9-18 6-14 3-6 1-1v-1l2-3 3-7 4-10 5-12 6-15 7-18 8-22 6-18 5-14 3-8 2-5v-2l1-3 2-4 3-10 4-14 6-20 6-20 4-16 3-9 2-5v-3l1-3 2-6 2-10 4-17 6-22 6-23 4-21 5-18 3-16 3-14 3-13 2-10 1-7 1-3" style="fill:none;stroke:none;stroke-width:0;stroke-linecap:butt;stroke-linejoin:bevel;stroke-miterlimit:4;stroke-dasharray:none;stroke-opacity:1" transform="translate(-1158.97 500.748)"/><path d="m3458 10603 2 1 2 1 2 1 1 1 1 1 1 1 2 2 1 2 1 1 1 2 1 2 1 3v14l-1 2-1 4-1 2-1 1-1 2-1 2-2 2-2 2-1 1-1 1-2 1-2 1h-2l-1 1h-9l-2-1h-2l-2-1-1-1-1-1-1-1-2-2-1-2-1-1-1-2-1-2-1-3v-11l1-2v-1l1-2 1-4 1-2v-1l1-2 1-2 2-2 2-2 1-1 1-1 2-1 2-1 1-1h2l2-1h7" style="fill:#fff;stroke:none;stroke-width:0;stroke-linecap:butt;stroke-linejoin:bevel;stroke-miterlimit:4;stroke-dasharray:none;stroke-opacity:1" transform="translate(-1158.97 500.748)"/><path d="m3458 10603 2 1 2 1 2 1 1 1 1 1 1 1 2 2 1 2 1 1 1 2 1 2 1 3v14l-1 2-1 4-1 2-1 1-1 2-1 2-2 2-2 2-1 1-1 1-2 1-2 1h-2l-1 1h-9l-2-1h-2l-2-1-1-1-1-1-1-1-2-2-1-2-1-1-1-2-1-2-1-3v-11l1-2v-1l1-2 1-4 1-2v-1l1-2 1-2 2-2 2-2 1-1 1-1 2-1 2-1 1-1h2l2-1h7" style="fill:none;stroke:none;stroke-width:0;stroke-linecap:butt;stroke-linejoin:bevel;stroke-miterlimit:4;stroke-dasharray:none;stroke-opacity:1" transform="translate(-1158.97 500.748)"/><path d="m3556 10746-1 1-8 6-10 8-8 6-1 1-3 2-5 3-7 3-9 3-12 4-12 3-7 1-3 1h-2l-8 1-15 1h-16l-8 1h-7l-9-1-19-2-16-2-14-2-12-3-11-2-9-2-6-1-3-1h-1v1l-3 6-5 12-5 11-3 6v2l-1 3-2 5-2 7-3 9-2 12-2 11-1 6v10l-1 11v11l-1 6v9l1 11 1 11 2 9 1 8 1 5 1 3v1l2 1 8 2 15 6 15 5 8 2 2 1h1l3 2 7 3 9 4 10 5 12 8 11 8 6 4 2 2 2 1 5 5 8 10 8 10 3 6 2 2 1 2 2 6 5 13 4 14 2 12 1 10 1 9v6l-1 4-2 7-1 4v4l-1 3-1 5-2 6-2 5-1 3-1 3-2 5-2 6-1 2-1 1-1 2-2 6-3 6-1 4-2 4-1 2v1l2 4 2 7 2 4v1l1 2 2 3 2 4 3 5 3 4 2 2v1l2 2 3 4 3 4 1 1 1 1 1 1 3 4 3 4 3 4 2 3 1 2v1l-1 5-2 13-3 20-5 25-4 24-3 20-2 13-1 5v1l-1 3-1 6-3 10-3 12-4 13-5 16-5 17-7 20-8 23-8 22-6 17-4 10-2 6-2 3-1 3-2 5-5 10-7 17-9 21-9 21-8 17-4 10-3 5-2 3-1 2-3 6-5 10-7 16-10 21-10 22-9 19-7 16-7 14-5 13-5 11-4 9-3 5-1 3h1l3-1 9-1 15-2 21-3 27-3 30-5 29-4 27-3 21-3 15-2 9-1 3-1h1v-1l1-4 3-9 5-17 8-23 9-29 10-33 9-33 9-29 8-23 5-17 3-9 1-4v-1l1-2 1-5 2-8 3-11 3-15 5-16 4-18 4-19 5-21 5-24 5-25 5-29 5-31 5-30 3-27 3-20 2-14 1-9 1-5v-8l1-5v-9l1-14 1-19 2-26 1-29 1-29v-67l1-5v-7l-1-5v-9l-1-13-2-19-2-25-3-28-4-29-3-26-4-23-4-21-4-19-4-17-4-16-4-15-3-12-2-10-2-7-1-4-1-2" style="fill:#fff;stroke:none;stroke-width:0;stroke-linecap:butt;stroke-linejoin:bevel;stroke-miterlimit:4;stroke-dasharray:none;stroke-opacity:1" transform="translate(-1158.97 500.748)"/><path d="m3556 10746-1 1-8 6-10 8-8 6-1 1-3 2-5 3-7 3-9 3-12 4-12 3-7 1-3 1h-2l-8 1-15 1h-16l-8 1h-7l-9-1-19-2-16-2-14-2-12-3-11-2-9-2-6-1-3-1h-1v1l-3 6-5 12-5 11-3 6v2l-1 3-2 5-2 7-3 9-2 12-2 11-1 6v10l-1 11v11l-1 6v9l1 11 1 11 2 9 1 8 1 5 1 3v1l2 1 8 2 15 6 15 5 8 2 2 1h1l3 2 7 3 9 4 10 5 12 8 11 8 6 4 2 2 2 1 5 5 8 10 8 10 3 6 2 2 1 2 2 6 5 13 4 14 2 12 1 10 1 9v6l-1 4-2 7-1 4v4l-1 3-1 5-2 6-2 5-1 3-1 3-2 5-2 6-1 2-1 1-1 2-2 6-3 6-1 4-2 4-1 2v1l2 4 2 7 2 4v1l1 2 2 3 2 4 3 5 3 4 2 2v1l2 2 3 4 3 4 1 1 1 1 1 1 3 4 3 4 3 4 2 3 1 2v1l-1 5-2 13-3 20-5 25-4 24-3 20-2 13-1 5v1l-1 3-1 6-3 10-3 12-4 13-5 16-5 17-7 20-8 23-8 22-6 17-4 10-2 6-2 3-1 3-2 5-5 10-7 17-9 21-9 21-8 17-4 10-3 5-2 3-1 2-3 6-5 10-7 16-10 21-10 22-9 19-7 16-7 14-5 13-5 11-4 9-3 5-1 3h1l3-1 9-1 15-2 21-3 27-3 30-5 29-4 27-3 21-3 15-2 9-1 3-1h1v-1l1-4 3-9 5-17 8-23 9-29 10-33 9-33 9-29 8-23 5-17 3-9 1-4v-1l1-2 1-5 2-8 3-11 3-15 5-16 4-18 4-19 5-21 5-24 5-25 5-29 5-31 5-30 3-27 3-20 2-14 1-9 1-5v-8l1-5v-9l1-14 1-19 2-26 1-29 1-29v-67l1-5v-7l-1-5v-9l-1-13-2-19-2-25-3-28-4-29-3-26-4-23-4-21-4-19-4-17-4-16-4-15-3-12-2-10-2-7-1-4-1-2" style="fill:none;stroke:none;stroke-width:0;stroke-linecap:butt;stroke-linejoin:bevel;stroke-miterlimit:4;stroke-dasharray:none;stroke-opacity:1" transform="translate(-1158.97 500.748)"/><path d="M2805 12346v2l-2 10-4 19-4 18-2 10v3l-2 5-3 8-4 11-5 13-9 15-9 13-5 7-1 3-2 2-6 6-13 10-14 10-7 4-3 2-3 2-9 3-18 6-16 4-15 3-12 1-12 1-10 1h-12l-6-1-12-2-17-2-18-2-12-2-6-1h-2l-5-2-8-3-10-5-12-7-12-10-10-10-5-6-1-2-1-3-3-7-6-13-5-14-2-8v-6l-1-9-1-16v-18l1-15 1-12 1-10 1-5v-5l1-7 2-14 3-20 3-27 4-33 5-38 5-41 5-40 5-38 4-33 3-27 3-20 2-14 1-7v-4h126v3l-1 6-2 11-2 17-3 24-3 29-5 34-4 38-6 41-5 40-4 38-5 34-3 29-3 24-2 17-2 11-1 6v10l-1 9v10l1 4 1 6 2 6 2 5 1 2v1l2 2 3 4 4 4 1 1 1 1 2 1 5 2 6 2 5 1h8l5-1 6-1 5-1h1l3-1 3-2 5-2 5-4 4-4 2-2v-1l2-2 3-5 3-6 2-2v-1l1-3 3-7 2-8 2-6v-5l1-3v-4l1-6 2-11 2-17 3-24 3-29 5-34 4-38 6-41 5-40 4-38 5-34 3-29 3-24 2-17 2-11 1-6v-3h126v4l-1 7-2 14-3 20-3 27-4 33-5 38-5 41-5 40-5 38-4 33-3 27-3 20-2 14-1 7v4" style="fill:none;stroke:none;stroke-width:0;stroke-linecap:butt;stroke-linejoin:bevel;stroke-miterlimit:4;stroke-dasharray:none;stroke-opacity:1"/><path d="M2910 11979h126l-69 548h-126l69-548" style="fill:none;stroke:none;stroke-width:0;stroke-linecap:butt;stroke-linejoin:miter;stroke-miterlimit:4;stroke-dasharray:none;stroke-opacity:1"/><path d="M3101 11979h145l59 356h2l44-356h118l-69 548h-143l-63-378h-2l-47 378h-113l69-548" style="fill:none;stroke:none;stroke-width:0;stroke-linecap:butt;stroke-linejoin:miter;stroke-miterlimit:4;stroke-dasharray:none;stroke-opacity:1"/></svg>