<svg xmlns="http://www.w3.org/2000/svg" version="1.2" viewBox="0 0 230 166"><path d="M229.488 1.066c-3.937-.859-14.793 2.637-20.57 5.32-5.906-2.171-9.637.255-12.379 4.766-16.68 20.72-21.61 44.645-22.785 69.594-2.152.152-3.672.942-4.559 2.363 5.953 4.938 21.727 4.536 41.055 2.211 5.852-21.699 10.852-44.523 3.492-66.953 3.863-2.457 8.235-.957 11.156-4.367-3.648 1.762-8.808.414-12.933-.395 3.347-5.394 14.023-10.937 17.523-12.539" style="fill:#000;fill-opacity:1;fill-rule:evenodd;stroke:none" transform="translate(-86.635 38.732)"/><path d="M229.488 1.066c-3.937-.859-14.793 2.637-20.57 5.32-5.906-2.171-9.637.255-12.379 4.766-16.68 20.72-21.61 44.645-22.785 69.594-2.152.152-3.672.942-4.559 2.363 5.953 4.938 21.727 4.536 41.055 2.211 5.852-21.699 10.852-44.523 3.492-66.953 3.863-2.457 8.235-.957 11.156-4.367-3.648 1.762-8.808.414-12.933-.395 3.347-5.394 14.023-10.937 17.523-12.539zm0 0" style="fill:none;stroke:#000;stroke-width:.1476;stroke-linecap:butt;stroke-linejoin:miter;stroke-miterlimit:2.4142;stroke-opacity:1" transform="translate(-86.635 38.732)"/><path d="M202.36 38.715c-.712 12.328-3.82 23.93-9.825 34.652-3.46-8.558-4.469-16.61-3.023-24.148-.473 6.812.172 11.496 3.031 19.508 3.969-7.434 7.156-16.778 9.816-30.012" style="fill:#fff;fill-opacity:1;fill-rule:evenodd;stroke:none" transform="translate(-86.635 38.732)"/><path d="M202.36 38.715c-.712 12.328-3.82 23.93-9.825 34.652-3.46-8.558-4.469-16.61-3.023-24.148-.473 6.812.172 11.496 3.031 19.508 3.969-7.434 7.156-16.778 9.816-30.012zm0 0" style="fill:none;stroke:#000;stroke-width:.1476;stroke-linecap:butt;stroke-linejoin:miter;stroke-miterlimit:2.4142;stroke-opacity:1" transform="translate(-86.635 38.732)"/><path d="M207.508 10.234c.71.145 1.129.993.933 1.887-.195.895-.925 1.5-1.64 1.352-.707-.145-1.13-.993-.934-1.887.196-.895.926-1.5 1.64-1.352" style="fill:#fff;fill-opacity:1;fill-rule:evenodd;stroke:none" transform="translate(-86.635 38.732)"/><path d="M207.508 10.234c.71.145 1.129.993.933 1.887-.195.895-.925 1.5-1.64 1.352-.707-.145-1.13-.993-.934-1.887.196-.895.926-1.5 1.64-1.352zm0 0" style="fill:none;stroke:#000;stroke-width:.1476;stroke-linecap:butt;stroke-linejoin:miter;stroke-miterlimit:2.4142;stroke-opacity:1" transform="translate(-86.635 38.732)"/><path d="M213.395 18.8c-2.422 2.47-6.57 3.587-14.528 1.731-1.816 3.711-2.289 7.442-1.414 11.184 5.215 1.445 9.285 3.805 9.274 9.445a17.914 17.914 0 0 1-1.692 4.992c.531 1.891 1.7 2.727 2.547 4.094-1.203 13.195-7.473 23.766-12.445 35.012l12.703-1.715c8.144-23.719 11.215-45.016 5.555-64.742" style="fill:#fff;fill-opacity:1;fill-rule:evenodd;stroke:none" transform="translate(-86.635 38.732)"/><path d="M213.395 18.8c-2.422 2.47-6.57 3.587-14.528 1.731-1.816 3.711-2.289 7.442-1.414 11.184 5.215 1.445 9.285 3.805 9.274 9.445a17.914 17.914 0 0 1-1.692 4.992c.531 1.891 1.7 2.727 2.547 4.094-1.203 13.195-7.473 23.766-12.445 35.012l12.703-1.715c8.144-23.719 11.215-45.016 5.555-64.742Zm0 0" style="fill:none;stroke:#000;stroke-width:.1476;stroke-linecap:butt;stroke-linejoin:miter;stroke-miterlimit:2.4142;stroke-opacity:1" transform="translate(-86.635 38.732)"/></svg>